<svg xmlns="http://www.w3.org/2000/svg" viewBox="0 0 1212.05 601.18"><defs><style>.cls-1,.cls-6{font-size:100px;}.cls-1,.cls-3,.cls-7{font-family:ToppanBunkyuMidashiMinchoStdN-ExtraBold-83pv-RKSJ-H, Toppan Bunkyu Midashi Mincho;}.cls-2,.cls-7{fill:#f7931e;}.cls-3{font-size:158.44px;fill:#f15a24;}.cls-4{fill:#1100bf;}.cls-5{fill:#000;}.cls-6{font-family:HiraKakuProN-W3-83pv-RKSJ-H, Hiragino Kaku Gothic ProN;}</style></defs><g id="レイヤー_2" data-name="レイヤー 2"><path d="M876.24,360c-12.38,6.23,11.36-33.61-2.84-38.91-2.82-1.05-1.8-.6-7.07-2.37-2.35-.79-3-4.6-4.14-5-3.71-1.39-17.18,8.58-30.26,20-10.33,9-24,13.78-26.94,12.78-12-4.07-26.51,1.49-42.34,7.09-18.33,6.49-28.12,20.26-29.73,23.28-2.57,4.86-7.79,28-33.3,42.88-6.13,3.56-8.93,6.87-4,9.55,11.26,6.18,55.83-14.64,52.24,6.11-7,40.29-10.51,11.75-31,50.41-3.34,6.32-17.72,42.35-38.65,58.23-52.71,40-35.57,80.92-48.6,51.77-8.72-19.5-42.84-59.09-19.76-101.36,37.11-68-42.67-104-42.7-102.07-.56,31.52,1.35,15.53-2.17,56.45-3.15,36.66-49.55,87.84-29.38,144.51,3.41,9.61,41.82,63.5,73.32,89.61,25.88,21.45,46.08,13.4,70.3,21.53,9.42,3.17,71.19-4.5,96.89-6.5,11.15-.87,15-9.26,4.52-14.53-5.5-2.77-42.05-10.43-40.77-11.1,20.74-10.8,5.24-52,31.9-51.66,14.55.15,63.92,71.84,78,69.86,38.29-5.4,35.58-.53,50-21.66,10-14.62-32.71-9.14-33.49-14.37L831,573s10.68,4.11,30.77-44.77c8.4-20.45,1.65-59.16,1-77.63-.31-8.94,11.18-19.15,12.5-26.46,2.19-12.11,1.64-17,3.44-27.44,2.17-12.64-3.1,3.85,0,0,1.2-1.5,13.81-29,14.28-30.86,1.77-7.19,5-24.41-4.5-27.31-.4-.12-2.1.51-2.17.95" transform="translate(-144.94 -104.05)"/><path d="M918.15,435.17" transform="translate(-144.94 -104.05)"/></g><g id="レイヤー_1" data-name="レイヤー 1"><text class="cls-1" transform="translate(489.25 198.31)">横浜<tspan class="cls-2" x="200" y="0">　　　</tspan><tspan x="500" y="0">パス </tspan></text><text x="-144.94" y="-104.05"/><text x="-144.94" y="-104.05"/><text class="cls-3" transform="translate(590.06 470.37) scale(0.98 1)">D<tspan class="cls-4" x="134.04" y="0"> </tspan><tspan class="cls-5" x="170.16" y="0">- 21</tspan></text><text x="-144.94" y="-104.05"/><text class="cls-6" transform="matrix(0.59, 0.29, -0.44, 0.9, 658.89, 122.99)">＼<tspan class="cls-7" x="100" y="0">キャン</tspan><tspan x="400" y="0">／</tspan></text></g></svg>